<?xml version="1.0" standalone="no"?><!DOCTYPE svg PUBLIC "-//W3C//DTD SVG 1.1//EN" "http://www.w3.org/Graphics/SVG/1.1/DTD/svg11.dtd"><svg t="1608015524208" class="icon" viewBox="0 0 1024 1024" version="1.1" xmlns="http://www.w3.org/2000/svg" p-id="15192" xmlns:xlink="http://www.w3.org/1999/xlink" width="128" height="128"><defs><style type="text/css"></style></defs><path d="M651.3 680.3c-1-39.6 40.1-62.6 40.1-105.2 0-71.9-81.9-130.2-182.9-130.2S325.6 503.1 325.6 575c0 42.6 40.6 72.3 39.6 111.9-1.1 43.4-49.2 58.3-49.2 105 0 75.7 86.2 137 192.6 137S701 867.6 701 791.9c0-46.7-48.6-68.2-49.7-111.6z" fill="#F7B239" p-id="15193"></path><path d="M508.5 949c-55.6 0-108-15.6-147.8-43.8-41.8-29.7-64.8-69.9-64.8-113.2 0-31.1 16.4-51.3 29.6-67.5 11.9-14.7 19.2-24.4 19.6-38 0.4-14.1-7.5-28-16.6-44-10.8-19-23-40.6-23-67.3 0-41.4 22-79.9 62-108.3 37.9-27 88-41.8 140.9-41.8s103 14.9 140.9 41.8c40 28.4 62 66.9 62 108.3 0 27.3-12.7 47.3-23.8 64.9-8.9 14.1-16.7 26.3-16.3 39.8 0.4 14.8 9.7 27.3 20.4 41.9 13.8 18.6 29.4 39.7 29.4 70.3 0 43.3-23 83.5-64.8 113.2C616.5 933.4 564 949 508.5 949z m0-484.1c-44.7 0-86.5 12.2-117.7 34.4-29.1 20.7-45.2 47.6-45.2 75.8 0 16.2 8.6 31.5 17.8 47.6 10.5 18.6 22.4 39.6 21.8 64.8-0.7 27.9-15.5 46.1-28.5 62.2C343.9 765.5 336 776 336 792c0 30 17 58.6 48 80.6 33 23.5 77.2 36.4 124.6 36.4 47.3 0 91.5-12.9 124.6-36.4 30.9-22 48-50.7 48-80.6 0-17.4-10-30.9-21.5-46.5-12.9-17.4-27.5-37.2-28.2-64.6-0.7-25.7 11.6-45.1 22.5-62.3 9.4-14.9 17.6-27.8 17.6-43.5 0-28.1-16-55-45.2-75.8-31.4-22.2-73.2-34.4-117.9-34.4z" fill="" p-id="15194"></path><path d="M463.6 173.3h86.7v424.2h-86.7z" fill="#E0B08C" p-id="15195"></path><path d="M570.3 617.5H443.6V153.3h126.7v464.2z m-86.7-40h46.7V193.3h-46.7v384.2z" fill="" p-id="15196"></path><path d="M508.5 623.4m-67.7 0a67.7 67.7 0 1 0 135.4 0 67.7 67.7 0 1 0-135.4 0Z" fill="#4D4D4D" p-id="15197"></path><path d="M508.5 711.1c-48.4 0-87.7-39.3-87.7-87.7 0-48.4 39.3-87.7 87.7-87.7 48.4 0 87.7 39.3 87.7 87.7 0 48.3-39.3 87.7-87.7 87.7z m0-135.4c-26.3 0-47.7 21.4-47.7 47.7s21.4 47.7 47.7 47.7c26.3 0 47.7-21.4 47.7-47.7s-21.4-47.7-47.7-47.7z" fill="" p-id="15198"></path><path d="M576.2 143c10.5 27.5 0 118 0 118 0 4.8-3.9 8.7-8.7 8.7h-118c-4.8 0-8.7-3.9-8.7-8.7 0 0-10.2-90.3 0-118 7.3-19.8 45-52.5 66.1-52.8 21.8-0.2 61.5 32.5 69.3 52.8z" fill="#F7B13B" p-id="15199"></path><path d="M567.5 289.7h-118c-15.4 0-27.9-12.1-28.7-27.3-2-17.6-9.9-96.2 1.2-126.3 7-19.1 27.7-37.2 33.9-42.2 10.6-8.7 31.2-23.4 50.7-23.6h0.5c19.8 0 41 14.3 52 22.9 8.3 6.5 28.5 23.8 35.7 42.7 11.5 30.1 3.3 108.9 1.3 126.6-0.7 15.1-13.3 27.2-28.6 27.2z m-107.8-40h97.6c3.6-35.5 5.8-85 0.2-99.5-2-5.3-10.6-15.7-23.1-25.5-13.4-10.5-23.8-14.4-27.3-14.4h-0.1c-2.7 0-12.6 3.6-25.7 14.5-11.8 9.7-19.9 20.1-21.8 25.2-5.4 14.6-3.3 64.2 0.2 99.7z" fill="" p-id="15200"></path><path d="M663.9 186.1h-74.5c-16.5 0-30-13.4-30-30s13.4-30 30-30h74.5c16.5 0 30 13.4 30 30s-13.4 30-30 30zM663.9 263.4h-74.5c-16.5 0-30-13.4-30-30s13.4-30 30-30h74.5c16.5 0 30 13.4 30 30s-13.4 30-30 30zM418.2 263.4h-74.5c-16.5 0-30-13.4-30-30s13.4-30 30-30h74.5c16.5 0 30 13.4 30 30s-13.5 30-30 30zM423.3 186.1h-74.5c-16.5 0-30-13.4-30-30s13.4-30 30-30h74.5c16.5 0 30 13.4 30 30s-13.5 30-30 30zM432.9 805.3H573v40H432.9z" fill="" p-id="15201"></path></svg>